<svg xmlns="http://www.w3.org/2000/svg" viewBox="0 0 603 596" role="img" aria-label="飴屋MUSASHI logo">
  <title>飴屋MUSASHI logo</title>
  <desc>Auto-traced vector logo from the finalized navy logo artwork. Fill color: #0B365F.</desc>
  <path d="M 213.0 27.0 L 189.0 36.0 L 164.0 49.0 L 140.0 65.0 L 120.0 81.0 L 96.0 105.0 L 76.0 130.0 L 63.0 150.0 L 50.0 175.0 L 50.0 177.0 L 42.0 194.0 L 31.0 231.0 L 31.0 235.0 L 27.0 251.0 L 26.0 267.0 L 25.0 268.0 L 25.0 282.0 L 24.0 283.0 L 24.0 306.0 L 25.0 307.0 L 26.0 330.0 L 27.0 331.0 L 27.0 337.0 L 28.0 338.0 L 30.0 353.0 L 35.0 373.0 L 37.0 377.0 L 37.0 380.0 L 45.0 402.0 L 58.0 430.0 L 63.0 437.0 L 68.0 447.0 L 88.0 475.0 L 100.0 489.0 L 119.0 508.0 L 132.0 519.0 L 148.0 531.0 L 177.0 549.0 L 200.0 560.0 L 222.0 568.0 L 235.0 571.0 L 244.0 571.0 L 248.0 569.0 L 300.0 517.0 L 302.0 517.0 L 356.0 570.0 L 358.0 571.0 L 369.0 571.0 L 382.0 568.0 L 405.0 560.0 L 433.0 546.0 L 462.0 527.0 L 479.0 513.0 L 511.0 480.0 L 527.0 459.0 L 543.0 433.0 L 560.0 396.0 L 569.0 368.0 L 573.0 347.0 L 574.0 346.0 L 575.0 335.0 L 576.0 334.0 L 577.0 316.0 L 578.0 315.0 L 578.0 274.0 L 577.0 273.0 L 577.0 263.0 L 576.0 262.0 L 574.0 243.0 L 568.0 217.0 L 560.0 193.0 L 552.0 176.0 L 552.0 174.0 L 539.0 149.0 L 521.0 122.0 L 505.0 103.0 L 480.0 79.0 L 458.0 62.0 L 432.0 46.0 L 409.0 35.0 L 389.0 28.0 L 376.0 25.0 L 371.0 25.0 L 370.0 24.0 L 361.0 24.0 L 356.0 26.0 L 303.0 79.0 L 300.0 79.0 L 269.0 48.0 L 245.0 26.0 L 239.0 24.0 L 227.0 24.0 L 226.0 25.0 L 221.0 25.0 Z
M 290.0 199.0 L 313.0 199.0 L 337.0 228.0 L 337.0 375.0 L 308.0 409.0 L 295.0 409.0 L 265.0 374.0 L 265.0 229.0 Z
M 232.0 72.0 L 238.0 72.0 L 251.0 88.0 L 300.0 143.0 L 302.0 143.0 L 366.0 73.0 L 383.0 78.0 L 403.0 87.0 L 422.0 98.0 L 440.0 111.0 L 456.0 125.0 L 478.0 149.0 L 489.0 164.0 L 502.0 186.0 L 502.0 188.0 L 509.0 201.0 L 519.0 228.0 L 525.0 254.0 L 527.0 276.0 L 528.0 277.0 L 527.0 321.0 L 526.0 322.0 L 525.0 335.0 L 519.0 361.0 L 511.0 384.0 L 497.0 413.0 L 483.0 435.0 L 470.0 451.0 L 438.0 482.0 L 425.0 492.0 L 406.0 504.0 L 395.0 509.0 L 393.0 511.0 L 391.0 511.0 L 372.0 520.0 L 367.0 520.0 L 338.0 490.0 L 338.0 487.0 L 361.0 460.0 L 376.0 437.0 L 387.0 415.0 L 397.0 387.0 L 398.0 379.0 L 401.0 369.0 L 402.0 352.0 L 403.0 351.0 L 403.0 241.0 L 402.0 240.0 L 401.0 226.0 L 397.0 209.0 L 387.0 181.0 L 372.0 153.0 L 358.0 133.0 L 347.0 121.0 L 302.0 165.0 L 300.0 165.0 L 256.0 121.0 L 244.0 134.0 L 227.0 159.0 L 213.0 187.0 L 205.0 211.0 L 202.0 224.0 L 202.0 229.0 L 201.0 230.0 L 200.0 249.0 L 199.0 250.0 L 199.0 340.0 L 200.0 341.0 L 200.0 356.0 L 201.0 357.0 L 202.0 371.0 L 204.0 376.0 L 206.0 388.0 L 212.0 406.0 L 224.0 432.0 L 238.0 455.0 L 251.0 472.0 L 265.0 487.0 L 265.0 490.0 L 236.0 519.0 L 231.0 519.0 L 216.0 513.0 L 183.0 495.0 L 157.0 475.0 L 133.0 451.0 L 118.0 432.0 L 104.0 410.0 L 96.0 394.0 L 85.0 366.0 L 77.0 334.0 L 76.0 318.0 L 75.0 317.0 L 75.0 304.0 L 74.0 303.0 L 75.0 271.0 L 76.0 270.0 L 76.0 262.0 L 77.0 261.0 L 77.0 256.0 L 81.0 241.0 L 81.0 237.0 L 83.0 233.0 L 85.0 223.0 L 87.0 220.0 L 95.0 197.0 L 103.0 181.0 L 122.0 152.0 L 131.0 141.0 L 156.0 116.0 L 167.0 107.0 L 191.0 91.0 L 214.0 79.0 Z" fill="#0B365F" fill-rule="evenodd" transform="translate(0.00 0.00) scale(1.00000)"/>
</svg>
